<svg width="132" height="32" viewBox="0 0 132 32" fill="none" xmlns="http://www.w3.org/2000/svg">
<g clip-path="url(#clip0_258_32913)">
<path d="M14.6655 0.186523H14.6637L14.3168 0.391696L12.6775 3.65208L7.83245 13.2822L7.45387 14.0357L3.31747 22.2613C3.27271 22.3471 3.22796 22.4347 3.18693 22.5205C3.12165 22.6492 2.99111 22.7239 2.85497 22.7239C2.80089 22.7239 2.74308 22.7108 2.69086 22.6847L0.203049 21.4331C0.0221511 21.3417 -0.0505809 21.1216 0.0370705 20.9388C0.072504 20.8661 0.107938 20.7952 0.143371 20.7243C0.150831 20.7076 0.160155 20.6908 0.167615 20.6758L10.3203 0.494283C10.4154 0.305897 10.6093 0.186523 10.8201 0.186523H14.6655Z" fill="#05B768"/>
<path d="M25.1838 20.6777C23.6434 17.6747 21.0549 15.3003 17.8994 14.0375L12.6758 3.65206L14.3169 0.391675C14.4549 0.117489 14.8447 0.117489 14.9827 0.391675L25.1838 20.6777Z" fill="#CCCCCC"/>
<path d="M25.1437 21.435L22.6652 22.6828C22.6521 22.6903 22.6372 22.6959 22.6242 22.6996C22.516 22.7388 22.3985 22.7257 22.3034 22.6679C22.2754 22.6493 22.2474 22.6288 22.2232 22.6026C22.199 22.5765 22.1803 22.5485 22.1635 22.5168L22.0498 22.2911L17.8984 14.0376C21.0539 15.3003 23.6424 17.6748 25.1828 20.6777C25.1903 20.6908 25.1977 20.7057 25.2033 20.7206L25.3115 20.9351C25.401 21.1198 25.3283 21.3418 25.1437 21.435Z" fill="#CCCCCC"/>
<path d="M25.1464 21.435L22.6661 22.681C22.653 22.6884 22.6399 22.694 22.6269 22.6996C22.5187 22.7388 22.4012 22.7257 22.3061 22.6679C22.2782 22.6492 22.2502 22.6287 22.2259 22.6026C22.2017 22.5765 22.183 22.5485 22.1663 22.5168L22.0525 22.2911C20.3088 18.8871 16.7654 16.5575 12.6775 16.5575C9.68432 16.5575 6.98391 17.8072 5.06864 19.8104C4.37302 20.536 3.78184 21.3604 3.31747 22.2613C3.27271 22.3471 3.22796 22.4347 3.18693 22.5205C3.12165 22.6492 2.99111 22.7239 2.85497 22.7239C2.80089 22.7239 2.74308 22.7108 2.69086 22.6847L0.203049 21.4331C0.0221511 21.3417 -0.0505809 21.1216 0.0370705 20.9389C0.072504 20.8661 0.107938 20.7952 0.143371 20.7244C0.150831 20.7076 0.160155 20.6908 0.167615 20.6759C1.70991 17.6747 4.29842 15.2985 7.45387 14.0357C7.72802 13.9257 8.00776 13.8249 8.29122 13.7317C9.67127 13.2766 11.1464 13.0322 12.6775 13.0322C14.5238 13.0322 16.2862 13.3885 17.9012 14.0376C21.0566 15.3003 23.6451 17.6747 25.1856 20.6777C25.193 20.6908 25.2005 20.7057 25.2061 20.7206L25.3142 20.9351C25.4038 21.1198 25.331 21.3417 25.1464 21.435Z" fill="#05B768"/>
</g>
<path d="M61.9902 16.3366C61.9902 11.5508 58.0981 7.65869 53.3146 7.65869C48.5312 7.65869 44.6367 11.5508 44.6367 16.3366C44.6367 21.1224 48.5289 25.0122 53.3123 25.0122C56.4483 25.0122 59.2761 23.5828 60.8145 21.2504C60.8856 21.1414 60.8406 20.9944 60.7221 20.9422L57.7425 19.6267C57.6619 19.5911 57.5695 19.6101 57.5055 19.6741C56.5929 20.5938 55.0071 21.2172 53.5232 21.2172C51.4136 21.2172 48.9721 19.9609 48.7043 17.9342L48.6735 17.6948H61.6986C61.8053 17.6948 61.8954 17.6166 61.9096 17.5123C61.9618 17.1283 61.9878 16.7348 61.9878 16.339L61.9902 16.3366ZM48.6403 14.9808L48.7138 14.7129C49.2518 12.7645 51.1031 11.456 53.3146 11.456C55.5262 11.456 57.4865 12.8285 57.9203 14.72L57.9772 14.9784H48.6379L48.6403 14.9808Z" fill="#24252B"/>
<path d="M121.316 24.0166L121.512 24.1494L119.035 31.6113C118.99 31.7488 119.092 31.891 119.237 31.891H123.385C123.475 31.891 123.558 31.8317 123.586 31.7464L131.52 8.19914C131.567 8.06166 131.463 7.91943 131.319 7.91943H127.17C127.08 7.91943 126.997 7.97869 126.969 8.06403L123.53 18.2661C122.913 20.0083 122.247 21.7055 121.444 21.7055C120.503 21.7055 120.164 20.7668 119.699 19.4679C119.647 19.3185 119.59 19.1668 119.533 19.0104C119.524 18.9796 119.517 18.9582 119.512 18.9393L119.495 18.8753L116.305 8.07114C116.279 7.98106 116.196 7.91943 116.101 7.91943H111.943C111.801 7.91943 111.699 8.05455 111.739 8.19203L115.354 20.4468C115.354 20.4468 115.361 20.4658 115.361 20.4729C115.378 20.5417 115.421 20.6862 115.477 20.8664L115.487 20.8996C115.499 20.9375 115.515 20.9897 115.532 21.0465C116.328 23.6966 117.509 25.0382 119.04 25.0382C120.458 25.0382 121.309 24.019 121.309 24.019L121.316 24.0166Z" fill="#24252B"/>
<path d="M78.7118 9.25382C77.4982 7.90508 75.8366 7.22241 73.7649 7.22241C71.6932 7.22241 69.8538 8.04493 68.588 9.8156L68.524 9.90567H68.2348L68.268 7.95723C68.268 7.83871 68.1755 7.74152 68.057 7.74152H64.3047C64.1886 7.74152 64.0938 7.83634 64.0938 7.95249V24.6304C64.0938 24.7466 64.1886 24.8414 64.3047 24.8414H68.2087C68.3249 24.8414 68.4197 24.7466 68.4197 24.6304V15.5519C68.4197 14.2103 68.8298 13.1128 69.6404 12.2903C70.5103 11.4085 71.3068 11.0482 72.3948 11.0482C73.4828 11.0482 74.3978 11.4251 75.116 12.1694C75.8318 12.9113 76.1969 13.9329 76.1969 15.2034V24.6352C76.1969 24.7513 76.2917 24.8461 76.4078 24.8461H80.3095C80.4256 24.8461 80.5204 24.7513 80.5204 24.6352V14.919C80.5204 12.4989 79.9112 10.5931 78.7118 9.25619V9.25382Z" fill="#24252B"/>
<path d="M96.9583 0C96.8422 0 96.7474 0.0948148 96.7474 0.210963V10.1215H96.4961C96.4961 10.1215 96.0126 8.99319 94.1352 8.0403C93.1681 7.54963 91.8786 7.27467 90.7005 7.27467H90.6105C88.3302 7.27467 86.4102 8.10904 84.8979 9.75407C83.3619 11.4276 82.582 13.632 82.582 16.3058C82.582 18.9796 83.3524 21.1627 84.8671 22.8599C86.3746 24.5499 88.3491 25.408 90.7361 25.408C91.9118 25.3843 92.9974 25.1212 93.9598 24.6234C94.9174 24.128 95.8917 23.4761 96.4321 22.6892L96.4961 22.5967H96.7474V24.6684C96.7474 24.7846 96.8422 24.8794 96.9583 24.8794H100.82C100.936 24.8794 101.031 24.7846 101.031 24.6684V0.210963C101.031 0.0948148 100.936 0 100.82 0H96.9583ZM95.3702 19.8993C94.4528 20.8521 93.2724 21.3357 91.8597 21.3357C90.4469 21.3357 89.2309 20.8593 88.3183 19.9182C87.401 18.9796 86.9388 17.7754 86.9388 16.3413C86.9388 14.9073 87.401 13.7079 88.3183 12.7668C88.7758 12.2951 89.302 11.9443 89.897 11.7073C90.4872 11.4702 91.1438 11.3517 91.862 11.3517C93.2985 11.3517 94.486 11.8424 95.3915 12.8071C96.2923 13.7695 96.7497 14.9594 96.7497 16.3437C96.7497 17.728 96.2875 18.9511 95.3726 19.9016L95.3702 19.8993Z" fill="#24252B"/>
<path d="M44.4697 22.464V24.9529C44.4697 25.0524 44.3986 25.1401 44.3038 25.1615C42.014 25.6711 40.1627 25.4364 38.9349 24.4788C37.9061 23.6776 37.3633 22.3858 37.3633 20.7431V0.210963C37.361 0.0948148 37.4558 0 37.5719 0H41.5186C41.6347 0 41.7295 0.0948148 41.7295 0.210963V21.0418C41.7295 21.3073 41.8552 21.549 42.0922 21.7458C42.5402 22.1132 43.4054 22.3052 44.2421 22.2459C44.3654 22.2364 44.4697 22.3384 44.4697 22.464Z" fill="#24252B"/>
<path d="M111.595 22.4498V24.9553C111.595 25.0548 111.524 25.1425 111.429 25.1639C109.139 25.6735 107.288 25.4388 106.057 24.4812C105.031 23.68 104.488 22.3881 104.488 20.7455V0.210963C104.488 0.0948148 104.583 0 104.699 0H108.646C108.762 0 108.857 0.0948148 108.857 0.210963V20.8308C108.857 21.1224 109.009 21.3997 109.291 21.632C109.777 22.0326 110.616 22.2649 111.381 22.2364C111.5 22.2317 111.595 22.3313 111.595 22.4474V22.4498Z" fill="#24252B"/>
<defs>
<clipPath id="clip0_258_32913">
<rect width="25.363" height="22.7556" fill="white"/>
</clipPath>
</defs>
</svg>
