<svg width="452" height="153" viewBox="0 0 452 153" fill="none" xmlns="http://www.w3.org/2000/svg">
<path d="M117.985 78.1095C117.985 55.2275 99.3375 36.6182 76.4195 36.6182C53.5015 36.6182 34.8423 55.2275 34.8423 78.1095C34.8423 100.992 53.4901 119.589 76.4081 119.589C91.4331 119.589 104.982 112.756 112.352 101.604C112.693 101.082 112.477 100.38 111.909 100.13L97.634 93.8402C97.2478 93.6702 96.8049 93.7608 96.4983 94.0668C92.1259 98.4642 84.5282 101.445 77.4189 101.445C67.3113 101.445 55.6138 95.4382 54.3305 85.7482L54.1829 84.6035H116.588C117.099 84.6035 117.531 84.2295 117.599 83.7308C117.849 81.8948 117.974 80.0135 117.974 78.1208L117.985 78.1095ZM54.0239 71.6268L54.376 70.3462C56.9539 61.0302 65.8236 54.7742 76.4195 54.7742C87.0154 54.7742 96.4074 61.3362 98.4857 70.3802L98.7583 71.6155H54.0125L54.0239 71.6268Z" fill="#24252B"/>
<path d="M402.234 114.829L403.177 115.464L391.309 151.141C391.093 151.799 391.582 152.479 392.274 152.479H412.149C412.58 152.479 412.978 152.195 413.114 151.787L451.125 39.2021C451.352 38.5447 450.853 37.8647 450.16 37.8647H430.286C429.854 37.8647 429.456 38.1481 429.32 38.5561L412.841 87.3347C409.889 95.6647 406.697 103.779 402.848 103.779C398.339 103.779 396.715 99.2914 394.489 93.0807C394.239 92.3667 393.967 91.6414 393.694 90.8934C393.649 90.7461 393.614 90.6441 393.592 90.5534L393.512 90.2474L378.226 38.5901C378.101 38.1594 377.704 37.8647 377.249 37.8647H357.33C356.648 37.8647 356.16 38.5107 356.353 39.1681L373.672 97.7614C373.672 97.7614 373.706 97.8521 373.706 97.8861C373.786 98.2148 373.99 98.9061 374.262 99.7674L374.308 99.9261C374.365 100.107 374.444 100.357 374.524 100.629C378.34 113.299 383.995 119.714 391.332 119.714C398.123 119.714 402.2 114.841 402.2 114.841L402.234 114.829Z" fill="#24252B"/>
<path d="M198.098 44.2454C192.284 37.7967 184.323 34.5327 174.397 34.5327C164.471 34.5327 155.658 38.4654 149.593 46.9314L149.287 47.3621H147.901L148.06 38.046C148.06 37.4794 147.617 37.0147 147.05 37.0147H129.072C128.515 37.0147 128.061 37.468 128.061 38.0234V117.765C128.061 118.32 128.515 118.773 129.072 118.773H147.776C148.333 118.773 148.787 118.32 148.787 117.765V74.3581C148.787 67.9434 150.752 62.6961 154.636 58.7634C158.804 54.5474 162.62 52.8247 167.832 52.8247C173.045 52.8247 177.429 54.6267 180.87 58.1854C184.3 61.7327 186.049 66.6174 186.049 72.692V117.787C186.049 118.343 186.503 118.796 187.06 118.796H205.753C206.309 118.796 206.764 118.343 206.764 117.787V71.3321C206.764 59.7607 203.845 50.6487 198.098 44.2567V44.2454Z" fill="#24252B"/>
<path d="M285.532 0C284.975 0 284.521 0.453333 284.521 1.00867V48.3933H283.317C283.317 48.3933 281 42.9987 272.006 38.4427C267.372 36.0967 261.194 34.782 255.55 34.782H255.118C244.193 34.782 234.994 38.7713 227.748 46.6367C220.389 54.638 216.653 65.178 216.653 77.962C216.653 90.746 220.344 101.184 227.601 109.299C234.824 117.379 244.284 121.482 255.72 121.482C261.353 121.369 266.555 120.111 271.165 117.731C275.754 115.362 280.421 112.245 283.011 108.483L283.317 108.041H284.521V117.946C284.521 118.501 284.975 118.955 285.532 118.955H304.032C304.588 118.955 305.043 118.501 305.043 117.946V1.00867C305.043 0.453333 304.588 0 304.032 0H285.532ZM277.923 95.1433C273.528 99.6993 267.872 102.011 261.103 102.011C254.335 102.011 248.509 99.7333 244.136 95.234C239.741 90.746 237.527 84.9887 237.527 78.132C237.527 71.2753 239.741 65.5407 244.136 61.0413C246.328 58.786 248.849 57.1087 251.7 55.9753C254.528 54.842 257.674 54.2753 261.115 54.2753C267.997 54.2753 273.687 56.6213 278.025 61.234C282.34 65.8353 284.532 71.5247 284.532 78.1433C284.532 84.762 282.318 90.61 277.934 95.1547L277.923 95.1433Z" fill="#24252B"/>
<path d="M34.0478 107.406V119.306C34.0478 119.782 33.7071 120.201 33.2529 120.303C22.2822 122.74 13.4126 121.618 7.52976 117.039C2.60091 113.209 0.00020841 107.032 0.00020841 99.178V1.00867C-0.0111484 0.453333 0.443123 0 0.999605 0H19.9086C20.4651 0 20.9194 0.453333 20.9194 1.00867V100.606C20.9194 101.875 21.5213 103.031 22.657 103.972C24.8034 105.729 28.9486 106.647 32.9576 106.363C33.5481 106.318 34.0478 106.805 34.0478 107.406Z" fill="#24252B"/>
<path d="M355.649 107.338V119.317C355.649 119.793 355.308 120.213 354.854 120.315C343.883 122.751 335.013 121.629 329.119 117.051C324.202 113.22 321.601 107.043 321.601 99.1893V1.00867C321.601 0.453333 322.055 0 322.612 0H341.521C342.077 0 342.532 0.453333 342.532 1.00867V99.5973C342.532 100.991 343.258 102.317 344.61 103.428C346.938 105.343 350.958 106.454 354.627 106.318C355.194 106.295 355.649 106.771 355.649 107.327V107.338Z" fill="#24252B"/>
</svg>
